P2                  # Format : PGM
9 5                 # Dimensions : largeur hauteur
6                   # Niveaux de gris
0 0 0 0 0 0 0 0 0
0 6 0 4 0 3 2 1 0
0 6 0 4 0 3 0 1 0
0 6 5 4 0 3 0 1 0
0 0 0 0 0 0 0 0 0